<svg width="82" height="19" viewBox="0 0 82 19" fill="none" xmlns="http://www.w3.org/2000/svg">
<path d="M0.690552 18.6055H18.8473V0.394043H0.690552V18.6055ZM15.3526 7.74752H11.5159V3.89931H15.3526V7.74752ZM4.18457 3.89931H8.02333V11.2521H15.3526V15.1003H4.18457V3.89931ZM30.6708 0.394043C28.8753 0.394043 27.12 0.928105 25.6271 1.92864C24.1342 2.92924 22.9706 4.3513 22.2835 6.01518C21.5964 7.67907 21.4166 9.50988 21.7669 11.2763C22.1171 13.0426 22.9818 14.6651 24.2514 15.9386C25.521 17.212 27.1387 18.0792 28.8997 18.4306C30.6607 18.7819 32.4861 18.6016 34.1449 17.9124C35.8038 17.2232 37.2216 16.0561 38.2192 14.5587C39.2168 13.0612 39.7491 11.3008 39.7491 9.49979C39.7464 7.08565 38.789 4.77126 37.0871 3.06421C35.3851 1.35716 33.0776 0.396883 30.6708 0.394043ZM30.6708 15.1003C29.5664 15.1003 28.4869 14.7718 27.5687 14.1564C26.6504 13.541 25.9348 12.6664 25.5122 11.643C25.0895 10.6197 24.979 9.49362 25.1944 8.40718C25.4099 7.32081 25.9417 6.3229 26.7226 5.5397C27.5034 4.75643 28.4983 4.223 29.5815 4.00695C30.6646 3.79083 31.7873 3.90173 32.8075 4.32567C33.8278 4.74954 34.6999 5.46735 35.3134 6.38836C35.9269 7.30937 36.2544 8.39212 36.2544 9.49979C36.2522 10.9845 35.6632 12.4077 34.6165 13.4575C33.5699 14.5073 32.151 15.098 30.6708 15.1003ZM72.236 0.394043C70.4401 0.393901 68.6853 0.927821 67.1917 1.92828C65.6988 2.92874 64.5351 4.35087 63.8478 6.01469C63.1611 7.67857 62.9806 9.50945 63.331 11.2758C63.6814 13.0422 64.5457 14.6648 65.8156 15.9383C67.0848 17.2118 68.703 18.0791 70.4642 18.4305C72.2246 18.782 74.0502 18.6016 75.7095 17.9125C77.368 17.2233 78.7859 16.0562 79.7832 14.5588C80.7813 13.0613 81.3136 11.3008 81.3136 9.49979C81.3108 7.08579 80.3538 4.77148 78.6521 3.06442C76.9496 1.35737 74.6427 0.397096 72.236 0.394043ZM72.236 15.1003C71.1317 15.1004 70.0522 14.7721 69.1334 14.1568C68.2153 13.5415 67.4996 12.6668 67.077 11.6435C66.6537 10.6202 66.5433 9.49404 66.7585 8.40767C66.9744 7.32123 67.506 6.32325 68.2868 5.53991C69.0676 4.75664 70.0628 4.22314 71.1459 4.00702C72.2289 3.79082 73.3516 3.90173 74.3716 4.3256C75.3923 4.74947 76.2644 5.46728 76.8774 6.38829C77.4912 7.3093 77.8189 8.39212 77.8189 9.49979C77.8168 10.9843 77.2278 12.4074 76.1809 13.4572C75.1347 14.507 73.7161 15.0979 72.236 15.1003ZM51.453 0.394043C49.6572 0.394043 47.9023 0.928105 46.4093 1.92864C44.9164 2.92924 43.7528 4.3513 43.0657 6.01518C42.3786 7.67907 42.1988 9.50988 42.5491 11.2763C42.8993 13.0426 43.764 14.6651 45.0336 15.9386C46.3033 17.212 47.9209 18.0792 49.682 18.4306C51.4431 18.7819 53.268 18.6016 54.9273 17.9124C56.5858 17.2232 58.0036 16.0561 59.0017 14.5587C59.9991 13.0612 60.5314 11.3008 60.5314 9.49979C60.5286 7.08565 59.5708 4.77126 57.8691 3.06421C56.1674 1.35716 53.8598 0.396883 51.453 0.394043ZM51.453 15.1003C50.4238 15.1008 49.4151 14.8161 48.5373 14.2777C47.6595 13.7394 46.9471 12.9682 46.4787 12.0493C46.0103 11.1305 45.8041 10.0996 45.883 9.07067C45.9618 8.04167 46.3226 7.05455 46.9255 6.21832C47.5283 5.38201 48.3498 4.72902 49.299 4.33149C50.249 3.93396 51.2895 3.8073 52.306 3.96556C53.3232 4.12374 54.276 4.56061 55.061 5.22801C55.8461 5.89541 56.4315 6.76736 56.7535 7.74752H51.453V11.2521H56.7535C56.3847 12.3705 55.674 13.3442 54.7227 14.0349C53.7713 14.7257 52.6274 15.0984 51.453 15.1003Z" fill="#080829"/>
</svg>
