<svg width="106" height="11" viewBox="0 0 106 11" fill="none" xmlns="http://www.w3.org/2000/svg">
<path d="M52.7827 10.3158H49.1584V0.5973H52.7827V10.3158ZM49.5123 9.96078H52.4287V0.9523H49.5123V9.96078ZM57.8255 10.3158H54.2742V0.5973H61.694C62.7572 0.510964 63.8155 0.8103 64.6769 1.44078C65.0479 1.78108 65.3353 2.20275 65.5172 2.67284C65.6984 3.14293 65.7692 3.64874 65.7239 4.15085C65.777 5.01847 65.5016 5.87416 64.953 6.5471C64.3039 7.29402 63.2237 7.67884 61.7428 7.69233C61.3698 7.70227 58.5744 7.69233 57.8276 7.69233L57.8255 10.3158ZM54.626 9.96078H57.4716V7.33378H57.6493C57.6854 7.33378 61.3146 7.34514 61.7343 7.33378C63.114 7.32171 64.1057 6.97878 64.6854 6.30925C65.1739 5.70042 65.4159 4.92986 65.365 4.15014C65.4082 3.70028 65.348 3.24638 65.1887 2.82372C65.0287 2.40098 64.7746 2.02085 64.4448 1.71271C63.6463 1.13768 62.6687 0.867739 61.689 0.95159H54.6281L54.626 9.96078ZM60.9422 5.50908H57.4475V2.86362H60.9656C61.2148 2.82904 61.4689 2.85822 61.7039 2.94847C61.9396 3.03871 62.1477 3.1871 62.3105 3.37979C62.4585 3.62616 62.5279 3.91158 62.5102 4.19842C62.5236 4.46474 62.4663 4.72985 62.3438 4.96664C62.176 5.16963 61.9587 5.3259 61.7131 5.4204C61.4682 5.5149 61.2027 5.54444 60.9422 5.50624V5.50908ZM57.8014 5.15408H60.9422C61.5227 5.15408 61.8823 5.03267 62.0416 4.78275C62.1293 4.60113 62.169 4.39992 62.1569 4.19842C62.1725 3.98691 62.1265 3.7754 62.0253 3.58924L62.021 3.58285C61.8526 3.33435 61.5177 3.21862 60.9656 3.21862H57.8014V5.15408ZM72.1831 10.4592C69.0048 10.4592 67.1077 9.66755 66.385 8.03952C66.2668 7.72506 66.1861 7.39754 66.1458 7.06398L66.1146 6.8595H69.896L69.9208 7.0086C69.9498 7.16004 70.0142 7.30247 70.1077 7.42466C70.257 7.60571 70.7554 7.90959 72.409 7.90959C74.3966 7.90959 74.3966 7.55956 74.3966 7.37141C74.3966 7.05404 74.1666 6.94541 72.5456 6.77217L72.2376 6.74306C71.6275 6.68555 70.8559 6.61242 70.5034 6.58189C67.5303 6.31209 66.2031 5.38554 66.2031 3.57859C66.2031 1.68076 68.4619 0.45459 71.958 0.45459C74.81 0.45459 76.6476 1.20861 77.4185 2.69748C77.6011 3.04382 77.7243 3.41884 77.7816 3.8065L77.8064 4.00601H74.0208L74.0052 3.84555C73.9903 3.72016 73.9372 3.60252 73.8523 3.50901C73.7107 3.31873 73.2633 3.0042 71.8745 3.0042C70.1693 3.0042 69.9342 3.22288 69.9342 3.4586C69.9342 3.77313 70.4729 3.8846 72.1994 4.06991C72.9193 4.12884 74.0767 4.24812 74.4731 4.2964C76.9655 4.56762 78.0775 5.47145 78.0775 7.22799C78.0782 8.70124 77.0554 10.4592 72.1831 10.4592ZM66.528 7.2145C66.5634 7.44866 66.6243 7.6782 66.7099 7.89894C67.3682 9.38213 69.1591 10.1042 72.1831 10.1042C74.7116 10.1042 77.7264 9.6072 77.7264 7.22799C77.7264 5.67096 76.7425 4.8999 74.4356 4.64927C74.0392 4.60099 72.8889 4.48242 72.1704 4.42278C70.3299 4.22256 69.5817 4.11606 69.5817 3.4586C69.5817 2.77842 70.388 2.6492 71.8759 2.6492C73.0517 2.6492 73.8112 2.8622 74.1333 3.29175C74.2211 3.39761 74.2876 3.51966 74.3287 3.65101H77.3966C77.335 3.37645 77.2373 3.1112 77.1063 2.8622C76.3985 1.49971 74.6692 0.80959 71.9594 0.80959C68.6785 0.80959 66.5584 1.8966 66.5584 3.57859C66.5584 5.18319 67.7484 5.97555 70.5359 6.22831C70.8899 6.25884 71.6607 6.33197 72.2723 6.39019L72.5824 6.4193C74.088 6.57834 74.752 6.67774 74.752 7.37141C74.752 8.11833 73.8933 8.26459 72.4104 8.26459C71.0385 8.26459 70.1721 8.05798 69.8373 7.65115C69.7339 7.52143 69.6561 7.37326 69.6079 7.2145H66.528ZM84.8023 10.4471C81.1072 10.4471 79.0686 8.94832 79.0686 6.22618V0.5973H82.6447V6.22618C82.6447 7.15983 83.4778 7.69517 84.9297 7.69517C86.3171 7.69517 87.1786 7.1364 87.1786 6.23825V0.5973H90.7179V6.52438C90.7214 9.01719 88.5631 10.4471 84.8001 10.4471H84.8023ZM79.4225 0.9523V6.22618C79.4225 9.59016 82.7905 10.0921 84.8023 10.0921C86.882 10.0921 90.3696 9.6285 90.3696 6.52438V0.9523H87.5382V6.23825C87.5382 7.33875 86.516 8.05017 84.9353 8.05017C83.2832 8.05017 82.2964 7.36857 82.2964 6.22618V0.9523H79.4225ZM105.716 10.3158H102.341V5.92798L100.427 10.3158H97.4829L95.5887 5.9365V10.3158H92.2016V0.5973H96.6569L98.9716 5.95567L101.398 0.5973H105.72L105.716 10.3158ZM102.695 9.96078H105.362V0.9523H101.623L98.9603 6.83039L96.4219 0.9523H92.5527V9.96078H95.2319V4.22824L97.7095 9.96291H100.187L102.691 4.23676L102.695 9.96078ZM3.48766 0.7748H0.264038V10.1383H9.17181V7.64547H3.48766V0.7748ZM15.6785 0.561801C11.5637 0.561801 9.39975 2.51785 9.39975 5.3898C9.39975 8.6345 11.6713 10.2803 15.6785 10.2803C20.0899 10.2803 21.9452 8.3718 21.9452 5.3898C21.9452 2.36165 19.8521 0.560379 15.6785 0.560379V0.561801ZM15.6665 2.99497C15.9466 2.99369 16.2265 3.01002 16.5046 3.04396L12.9008 6.65857C12.7303 6.27169 12.6471 5.85173 12.6573 5.42885C12.6573 3.95986 13.3949 2.99355 15.6665 2.99355V2.99497ZM15.6785 7.88545C15.4086 7.88666 15.1389 7.87146 14.8708 7.84001L18.4809 4.21901C18.6451 4.5995 18.7237 5.01158 18.711 5.42601C18.711 6.85524 18.0315 7.88403 15.6785 7.88403V7.88545ZM28.3323 6.60745H31.6501C31.6012 6.83841 31.4994 7.05475 31.3528 7.23935C30.6649 7.80139 29.7871 8.07488 28.9028 8.0026C28.4577 8.05038 28.0077 8.00161 27.583 7.85961C27.1583 7.71768 26.7691 7.48579 26.4416 7.17971C26.1061 6.68619 25.9468 6.09348 25.9893 5.49772C25.935 4.87349 26.1083 4.2506 26.477 3.74473C26.9406 3.21933 27.7257 2.99284 28.8795 2.99284C29.6136 2.93185 30.3468 3.121 30.9606 3.5296C31.1541 3.68374 31.2987 3.89092 31.3768 4.126H34.4539C34.4316 3.73869 34.3387 3.3587 34.18 3.00491C33.4431 1.50184 31.7301 0.60724 28.8172 0.60724C26.2837 0.60724 24.5835 1.38256 23.6441 2.55193C23.0237 3.3964 22.7053 4.4259 22.7402 5.47429C22.7 6.54639 23.0102 7.60223 23.6236 8.48114C24.5516 9.68814 26.2045 10.2817 28.1907 10.2817C29.5113 10.3741 30.8228 10.0031 31.9007 9.23232L31.9842 10.1383H34.5403V4.59176H28.3323V6.60745ZM41.7952 0.559669C37.6811 0.559669 35.5164 2.51572 35.5164 5.38767C35.5164 8.63237 37.7873 10.2781 41.7952 10.2781C46.2073 10.2781 48.0626 8.36967 48.0626 5.38767C48.0626 2.36165 45.9695 0.560379 41.7952 0.560379V0.559669ZM41.7839 2.99284C42.0566 2.99206 42.3291 3.00768 42.6 3.0397L39.0105 6.64224C38.8452 6.25969 38.7648 5.84569 38.7747 5.42885C38.7719 3.95986 39.5123 2.99355 41.7839 2.99355V2.99284ZM41.7952 7.88332C41.5181 7.88453 41.2413 7.86841 40.9663 7.83504L44.5884 4.20126C44.7588 4.58679 44.8404 5.0059 44.827 5.42743C44.8284 6.85524 44.1517 7.88403 41.7952 7.88403V7.88332Z" fill="#080829"/>
</svg>
